<mxfile host="65bd71144e">
    <diagram id="M_bpCaEUXtsrfBVI-dHB" name="Seite-1">
        <mxGraphModel dx="1867" dy="2313" grid="1" gridSize="10" guides="1" tooltips="1" connect="1" arrows="1" fold="1" page="1" pageScale="1" pageWidth="827" pageHeight="1169" math="0" shadow="0">
            <root>
                <mxCell id="0"/>
                <mxCell id="1" parent="0"/>
                <mxCell id="mVyqkg123HM_XZHDsQZ0-4" value="" style="rounded=0;whiteSpace=wrap;html=1;fillColor=#dae8fc;strokeColor=none;strokeWidth=4;" parent="1" vertex="1">
                    <mxGeometry x="1" y="440" width="1511" height="200" as="geometry"/>
                </mxCell>
                <mxCell id="3jm2Od38Tj_tAcMKiyJK-2" value="" style="rounded=0;whiteSpace=wrap;html=1;fillColor=#e1d5e7;strokeColor=none;strokeWidth=4;" parent="1" vertex="1">
                    <mxGeometry x="1" y="880" width="1510" height="200" as="geometry"/>
                </mxCell>
                <mxCell id="mVyqkg123HM_XZHDsQZ0-9" value="" style="rounded=0;whiteSpace=wrap;html=1;fillColor=#ffe6cc;strokeColor=none;strokeWidth=4;" parent="1" vertex="1">
                    <mxGeometry y="220" width="1510" height="200" as="geometry"/>
                </mxCell>
                <mxCell id="mVyqkg123HM_XZHDsQZ0-2" value="" style="rounded=0;whiteSpace=wrap;html=1;fillColor=#f5f5f5;strokeColor=none;strokeWidth=4;fontColor=#333333;" parent="1" vertex="1">
                    <mxGeometry width="1510" height="200" as="geometry"/>
                </mxCell>
                <mxCell id="mVyqkg123HM_XZHDsQZ0-3" value="&lt;font style=&quot;font-size: 30px;&quot;&gt;Access&lt;/font&gt;" style="text;html=1;strokeColor=none;fillColor=none;align=center;verticalAlign=middle;whiteSpace=wrap;rounded=0;" parent="1" vertex="1">
                    <mxGeometry y="220" width="160" height="200" as="geometry"/>
                </mxCell>
                <mxCell id="mVyqkg123HM_XZHDsQZ0-5" value="&lt;font style=&quot;font-size: 20px;&quot;&gt;Transmission&lt;/font&gt;" style="text;html=1;strokeColor=none;fillColor=none;align=center;verticalAlign=middle;whiteSpace=wrap;rounded=0;" parent="1" vertex="1">
                    <mxGeometry y="440" width="160" height="200" as="geometry"/>
                </mxCell>
                <mxCell id="mVyqkg123HM_XZHDsQZ0-6" value="" style="rounded=0;whiteSpace=wrap;html=1;fillColor=#d5e8d4;strokeColor=none;strokeWidth=4;" parent="1" vertex="1">
                    <mxGeometry x="1" y="660" width="1510" height="200" as="geometry"/>
                </mxCell>
                <mxCell id="mVyqkg123HM_XZHDsQZ0-7" value="&lt;font style=&quot;font-size: 30px;&quot;&gt;Core&lt;/font&gt;" style="text;html=1;strokeColor=none;fillColor=none;align=center;verticalAlign=middle;whiteSpace=wrap;rounded=0;" parent="1" vertex="1">
                    <mxGeometry x="1" y="880" width="160" height="200" as="geometry"/>
                </mxCell>
                <mxCell id="mVyqkg123HM_XZHDsQZ0-8" value="" style="endArrow=none;html=1;rounded=0;fontSize=20;strokeWidth=4;entryX=1;entryY=1;entryDx=0;entryDy=0;strokeColor=#FFFFFF;" parent="1" target="mVyqkg123HM_XZHDsQZ0-7" edge="1">
                    <mxGeometry width="50" height="50" relative="1" as="geometry">
                        <mxPoint x="160" as="sourcePoint"/>
                        <mxPoint x="160" y="320" as="targetPoint"/>
                    </mxGeometry>
                </mxCell>
                <mxCell id="mVyqkg123HM_XZHDsQZ0-10" value="&lt;font style=&quot;font-size: 30px;&quot;&gt;Structure&lt;/font&gt;" style="text;html=1;strokeColor=none;fillColor=none;align=center;verticalAlign=middle;whiteSpace=wrap;rounded=0;" parent="1" vertex="1">
                    <mxGeometry width="160" height="200" as="geometry"/>
                </mxCell>
                <mxCell id="mVyqkg123HM_XZHDsQZ0-11" value="EPOCH A" style="text;html=1;strokeColor=none;fillColor=#e3c800;align=center;verticalAlign=middle;whiteSpace=wrap;rounded=0;fontSize=30;strokeWidth=4;fontColor=#000000;" parent="1" vertex="1">
                    <mxGeometry x="160" y="-80" width="670" height="70" as="geometry"/>
                </mxCell>
                <mxCell id="3jm2Od38Tj_tAcMKiyJK-1" value="Pole" style="ellipse;whiteSpace=wrap;html=1;fillColor=#f8cecc;strokeColor=#b85450;" parent="1" vertex="1">
                    <mxGeometry x="230" y="50" width="70" height="40" as="geometry"/>
                </mxCell>
                <mxCell id="3jm2Od38Tj_tAcMKiyJK-3" value="&lt;font style=&quot;font-size: 28px;&quot;&gt;Technology&lt;/font&gt;" style="text;html=1;strokeColor=none;fillColor=none;align=center;verticalAlign=middle;whiteSpace=wrap;rounded=0;" parent="1" vertex="1">
                    <mxGeometry x="1" y="660" width="160" height="200" as="geometry"/>
                </mxCell>
                <mxCell id="3jm2Od38Tj_tAcMKiyJK-10" style="edgeStyle=orthogonalEdgeStyle;curved=1;rounded=0;orthogonalLoop=1;jettySize=auto;html=1;exitX=0.5;exitY=0;exitDx=0;exitDy=0;entryX=0;entryY=1;entryDx=0;entryDy=0;fontSize=28;elbow=vertical;fillColor=#d5e8d4;strokeColor=#82b366;strokeWidth=3;" parent="1" source="3jm2Od38Tj_tAcMKiyJK-4" target="3jm2Od38Tj_tAcMKiyJK-6" edge="1">
                    <mxGeometry relative="1" as="geometry"/>
                </mxCell>
                <mxCell id="3jm2Od38Tj_tAcMKiyJK-11" style="edgeStyle=orthogonalEdgeStyle;curved=1;rounded=0;orthogonalLoop=1;jettySize=auto;html=1;exitX=0.5;exitY=0;exitDx=0;exitDy=0;entryX=0.349;entryY=0.976;entryDx=0;entryDy=0;entryPerimeter=0;fontSize=28;elbow=vertical;fillColor=#d5e8d4;strokeColor=#82b366;strokeWidth=3;" parent="1" source="3jm2Od38Tj_tAcMKiyJK-4" target="3jm2Od38Tj_tAcMKiyJK-7" edge="1">
                    <mxGeometry relative="1" as="geometry"/>
                </mxCell>
                <mxCell id="3jm2Od38Tj_tAcMKiyJK-4" value="56kbit/s" style="ellipse;whiteSpace=wrap;html=1;fillColor=#f8cecc;strokeColor=#b85450;" parent="1" vertex="1">
                    <mxGeometry x="220" y="700" width="70" height="40" as="geometry"/>
                </mxCell>
                <mxCell id="3jm2Od38Tj_tAcMKiyJK-8" style="edgeStyle=orthogonalEdgeStyle;rounded=0;orthogonalLoop=1;jettySize=auto;html=1;exitX=0.5;exitY=0;exitDx=0;exitDy=0;entryX=0;entryY=0.5;entryDx=0;entryDy=0;fontSize=28;elbow=vertical;curved=1;fillColor=#dae8fc;strokeColor=#6c8ebf;strokeWidth=3;" parent="1" source="3jm2Od38Tj_tAcMKiyJK-6" target="3jm2Od38Tj_tAcMKiyJK-1" edge="1">
                    <mxGeometry relative="1" as="geometry"/>
                </mxCell>
                <mxCell id="_qtBISLOYj1uzSgip38B-4" style="edgeStyle=orthogonalEdgeStyle;rounded=0;orthogonalLoop=1;jettySize=auto;html=1;exitX=1;exitY=0;exitDx=0;exitDy=0;entryX=0.5;entryY=1;entryDx=0;entryDy=0;fontSize=12;curved=1;strokeWidth=3;fillColor=#dae8fc;strokeColor=#6c8ebf;" parent="1" source="3jm2Od38Tj_tAcMKiyJK-6" target="_qtBISLOYj1uzSgip38B-3" edge="1">
                    <mxGeometry relative="1" as="geometry"/>
                </mxCell>
                <mxCell id="3jm2Od38Tj_tAcMKiyJK-6" value="unshielded&lt;br&gt;copper wire" style="ellipse;whiteSpace=wrap;html=1;fillColor=#f8cecc;strokeColor=#b85450;" parent="1" vertex="1">
                    <mxGeometry x="190" y="460" width="70" height="40" as="geometry"/>
                </mxCell>
                <mxCell id="3jm2Od38Tj_tAcMKiyJK-9" style="edgeStyle=orthogonalEdgeStyle;curved=1;rounded=0;orthogonalLoop=1;jettySize=auto;html=1;exitX=0.5;exitY=0;exitDx=0;exitDy=0;fontSize=28;elbow=vertical;fillColor=#dae8fc;strokeColor=#6c8ebf;strokeWidth=3;entryX=0.5;entryY=1;entryDx=0;entryDy=0;" parent="1" source="3jm2Od38Tj_tAcMKiyJK-7" target="3jm2Od38Tj_tAcMKiyJK-1" edge="1">
                    <mxGeometry relative="1" as="geometry">
                        <mxPoint x="330" y="310" as="targetPoint"/>
                    </mxGeometry>
                </mxCell>
                <mxCell id="_qtBISLOYj1uzSgip38B-5" style="edgeStyle=orthogonalEdgeStyle;curved=1;rounded=0;orthogonalLoop=1;jettySize=auto;html=1;exitX=1;exitY=0;exitDx=0;exitDy=0;entryX=0.5;entryY=1;entryDx=0;entryDy=0;fontSize=12;strokeWidth=3;fillColor=#dae8fc;strokeColor=#6c8ebf;" parent="1" source="3jm2Od38Tj_tAcMKiyJK-7" target="_qtBISLOYj1uzSgip38B-3" edge="1">
                    <mxGeometry relative="1" as="geometry"/>
                </mxCell>
                <mxCell id="3jm2Od38Tj_tAcMKiyJK-7" value="shielded&lt;br&gt;copper wire" style="ellipse;whiteSpace=wrap;html=1;fillColor=#f8cecc;strokeColor=#b85450;" parent="1" vertex="1">
                    <mxGeometry x="250" y="510" width="70" height="40" as="geometry"/>
                </mxCell>
                <mxCell id="_qtBISLOYj1uzSgip38B-1" value="EPOCH B" style="text;html=1;strokeColor=none;fillColor=#f0a30a;align=center;verticalAlign=middle;whiteSpace=wrap;rounded=0;fontSize=30;strokeWidth=4;fontColor=#000000;" parent="1" vertex="1">
                    <mxGeometry x="840" y="-80" width="670" height="70" as="geometry"/>
                </mxCell>
                <mxCell id="_qtBISLOYj1uzSgip38B-6" style="edgeStyle=orthogonalEdgeStyle;curved=1;rounded=0;orthogonalLoop=1;jettySize=auto;html=1;exitX=1;exitY=0;exitDx=0;exitDy=0;entryX=0.5;entryY=1;entryDx=0;entryDy=0;fontSize=12;strokeWidth=3;fillColor=#dae8fc;strokeColor=#6c8ebf;" parent="1" source="_qtBISLOYj1uzSgip38B-2" target="_qtBISLOYj1uzSgip38B-3" edge="1">
                    <mxGeometry relative="1" as="geometry"/>
                </mxCell>
                <mxCell id="_qtBISLOYj1uzSgip38B-2" value="&lt;span style=&quot;caret-color: rgb(0, 0, 0); font-family: -webkit-standard; text-align: start; text-size-adjust: auto;&quot;&gt;&lt;font style=&quot;font-size: 12px;&quot;&gt;coaxial cable&lt;/font&gt;&lt;/span&gt;" style="ellipse;whiteSpace=wrap;html=1;fillColor=#f8cecc;strokeColor=#b85450;" parent="1" vertex="1">
                    <mxGeometry x="310" y="570" width="70" height="40" as="geometry"/>
                </mxCell>
                <mxCell id="_qtBISLOYj1uzSgip38B-3" value="underground&lt;br&gt;cable" style="ellipse;whiteSpace=wrap;html=1;fillColor=#f8cecc;strokeColor=#b85450;" parent="1" vertex="1">
                    <mxGeometry x="330" y="125" width="80" height="50" as="geometry"/>
                </mxCell>
            </root>
        </mxGraphModel>
    </diagram>
</mxfile>